<svg enable-background="new 0 0 282.2 118.7" height="204.919954" viewBox="0 0 282.2 118.7" width="487.995425" xmlns="http://www.w3.org/2000/svg"><path d="m89.4 11.8c-13.2-17.6-19.4-18.7-35.1 19 10.4-7.9 32-18 35.1-19" fill="#d59f6b"/><path d="m110 11.5c-17.4 14.3 0 21.4 13.2 36.3-18.6-7.8-32.6-9.5-46.3-2.4-33.5 17.3-41.6 52.7-51.8 73.2 5.9-45.7 39.2-78.3-25.1-46.9 16.5-10.3 70.6-46.9 110-60.2" fill="#d59f6b"/><g fill="#00558b"><path d="m279.7 56.2h.3c.3 0 .6-.1.6-.4s-.2-.4-.6-.4h-.3zm0 1.4h-.4v-2.5c.2 0 .5-.1.7-.1.3 0 .5 0 .8.2.2.1.2.3.2.5 0 .3-.2.5-.5.6.2 0 .4.2.4.6 0 .2.1.4.2.6h-.4c-.1-.2-.2-.4-.2-.6 0-.3-.2-.4-.5-.4h-.3zm.4-3.2c-1 0-1.9.8-1.9 1.9 0 1 .8 1.9 1.9 1.9s1.9-.8 1.9-1.9c-.1-1-.9-1.9-1.9-1.9zm0-.3c1.2 0 2.2 1 2.2 2.2s-1 2.2-2.2 2.2-2.2-1-2.2-2.2c0-1.2.9-2.2 2.2-2.2-.1 0 0 0 0 0z"/><path d="m78.4 76c-4.3 0-6.4 1-6.4 3.1 0 1.4.4 2.4 1.3 2.8s2.7.7 5.6.7c4.6 0 6.9-1.1 6.9-3.2s-2.5-3.3-7.4-3.4m-5.1-5.8h-7.8c0-2.7.9-4.4 2.6-5.3 1.8-.9 5.3-1.3 10.5-1.3 5.7 0 9.5.5 11.6 1.6s3 3.2 3 6.2v14.4h-7.6l.4-3h-.2c-1.5 2.2-4.8 3.3-10.1 3.3-7.7 0-11.5-2.3-11.5-6.8s3.9-6.8 11.8-6.9c5.2 0 8.4.8 9.5 2.5h.1v-3.6c0-1.7-.4-2.9-1.3-3.4-.9-.6-2.6-.8-5.3-.8-3.8 0-5.7 1.1-5.7 3.1"/><path d="m102.2 63.8h7.6l-.2 3.4h.2c1.5-2.4 4.8-3.7 9.7-3.7 5.7 0 8.9 1.4 9.5 4.1h.1c1.5-2.7 4.7-4.1 9.8-4.1 7.3 0 11 2.6 11 7.7v14.6h-7.6v-13.4c0-3.1-1.8-4.7-5.5-4.7-4.6 0-6.9 1.7-6.9 5.2v12.9h-7.6v-13.6c0-1.8-.3-3-1-3.6s-2.1-.9-4.4-.9c-4.7 0-7 1.8-7 5.4v12.8h-7.6z"/><path d="m158.9 63.8h7.5l-.3 3.7h.2c1.5-2.7 4.8-4 9.9-4 7.5 0 11.2 2.4 11.2 7.3v15h-7.6v-14.1l-.2-1.5c-.4-1.6-2.2-2.5-5.6-2.5-5.1 0-7.6 1.7-7.6 5v13.1h-7.6v-22z"/><path d="m216.7 72.6v-.9c0-1.8-.4-2.9-1.3-3.4s-2.8-.8-5.7-.8c-2.8 0-4.7.3-5.5.9s-1.3 2-1.3 4.1h13.8zm-.1 6.2h7.6v.9c0 4.3-4.6 6.5-13.9 6.5-6.3 0-10.4-.7-12.4-2.2-1.9-1.5-2.9-4.6-2.9-9.5 0-4.3 1-7.2 3-8.6 2-1.5 6-2.2 12-2.2 5.6 0 9.4.7 11.4 2.1 1.9 1.4 2.9 4.3 2.9 8.5v1.6h-21.4c0 .5-.1.8-.1 1 0 2.2.5 3.6 1.4 4.3 1 .7 2.9 1.1 5.7 1.1s4.6-.2 5.4-.6c.9-.6 1.3-1.5 1.3-2.9"/><path d="m244.8 76c-4.3 0-6.4 1-6.4 3.1 0 1.4.4 2.4 1.3 2.8s2.7.7 5.6.7c4.6 0 6.9-1.1 6.9-3.2 0-2.2-2.5-3.3-7.4-3.4m-5-5.8h-7.8c0-2.7.9-4.4 2.6-5.3 1.8-.9 5.3-1.3 10.5-1.3 5.7 0 9.5.5 11.5 1.6s3 3.2 3 6.2v14.4h-7.6l.4-3h-.2c-1.5 2.2-4.8 3.3-10.1 3.3-7.7 0-11.5-2.3-11.5-6.8s3.9-6.8 11.8-6.9c5.2 0 8.4.8 9.5 2.5h.1v-3.6c0-1.7-.4-2.9-1.3-3.4-.9-.6-2.6-.8-5.3-.8-3.8.1-5.7 1.1-5.6 3.1"/><path d="m268.6 54.4h7.6v31.5h-7.6z"/></g></svg>