<svg version="1.1" id="Layer_1" xmlns="http://www.w3.org/2000/svg" xmlns:xlink="http://www.w3.org/1999/xlink" x="0px" y="0px" viewBox="0 0 927.6 201" style="enable-background:new 0 0 927.6 201;" xml:space="preserve">
 <style type="text/css">
  .st0{clip-path:url(#SVGID_2_);}
	.st1{clip-path:url(#SVGID_4_);}
	.st2{fill:#003E52;}
 </style>
 <g id="Logo_-_KO">
  <g>
   <defs>
    <rect id="SVGID_1_" width="927.3" height="201">
    </rect>
   </defs>
   <clipPath id="SVGID_2_">
    <use href="#SVGID_1_" style="overflow:visible;">
    </use>
   </clipPath>
   <g class="st0">
    <g>
     <defs>
      <rect id="SVGID_3_" width="927.3" height="201">
      </rect>
     </defs>
     <clipPath id="SVGID_4_">
      <use xlink:href="#SVGID_3_" style="overflow:visible;">
      </use>
     </clipPath>
     <g class="st1">
      <path class="st2" d="M47.5,84.2c-4.2,0-7.3,0-10,0c-0.3,7-0.3,13.5-0.3,23.1c0,14.9,0,33,0,41.3c4.3,0,7.8,0,12.9,0
						c13.9,0,25.9-11.5,25.9-32.1S66.4,84.2,47.5,84.2 M49.6,13.4c-3.9-0.1-7.7,0.1-11.5,0.7c-0.5,12-0.9,24.7-0.9,32.7s0,16.5,0,24
						H48c15-0.1,27.1-12.4,27-27.5c0-0.8-0.1-1.6-0.1-2.5c0-15.1-6.6-27.9-25.2-27.9 M2.3,65.2c0-26.3,0-44.4-1.9-65.1
						c5.2,0,11.5,1.2,19.3,1.2C33.2,1.2,48.7,0,62.1,0c27.9,0,47.6,10.8,47.6,36.4S85.9,72.6,71.3,75.3v0.5
						c14.4,0.7,42.4,11.1,42.4,39.5c0,33.7-26.9,47.1-54.9,47.1c-12.5,0-22.9-1.2-34.6-1.2c-8.5,0-18.6,0.7-23.8,1.2
						c1.4-20.7,1.9-38.9,1.9-65.1L2.3,65.2z">
      </path>
      <path class="st2" d="M123.4,74.7c0-23.8,0-40.1-1.8-58.8c12.6,0,25.3,1.1,37.7,1.1c20.8,0,38.6,0,44.3-1.1
						c-0.6,3.1-0.9,6.2-0.8,9.3c0,3.1,0.3,6.2,0.8,9.3c-16.1-1.1-41.6-2.6-47.9-2.6c-1.1,15.5-1.1,30.8-1.1,46.5
						c18.6,0,32.1-0.8,48.2-1.7c-0.6,3.1-1,6.2-1,9.3c0.1,2.9,0.5,5.8,1,8.6c-16.1-1.3-32-1.9-48.2-1.9c0,8.8,0,17.9,0,27.1
						s0,17.9,0.7,26.5c16.2,0,32.4-0.9,48.5-2.8c-0.6,3.1-0.8,6.2-0.8,9.3c-0.1,3.1,0.2,6.2,0.8,9.3c-7.6,0-17.6-1.1-37.2-1.1
						c-15-0.4-30-0.1-45,1.1c1.3-18.6,1.8-35,1.8-58.8L123.4,74.7z">
      </path>
      <path class="st2" d="M254.7,28.1c0,19.3-0.6,38.4-0.6,57.6c1.5,0.3,3.1,0.4,4.6,0.5c18.6,0,28.8-10.4,28.8-30.3
						C287.6,30.9,277.9,28,254.7,28.1 M256,94.8h-1.9v8.6c0,23.7,0,40.1,1.7,58.8c-5.8-0.7-11.6-1.1-17.4-1.1
						c-5.8,0.1-11.6,0.4-17.4,1.1c1.3-18.6,1.7-35,1.7-58.8V74.7c0-23.8,0-40.1-1.7-58.8c5.8,0.6,11.6,0.9,17.4,0.8
						c7.6,0,16.7-1,31.1-1c21.5,0,29.3,2,37.2,7.3c9,6.4,14.1,16.9,13.8,27.9c0,20.5-11.9,33.7-32.9,39c13.6,24,29.8,48.2,45.2,72.1
						c-6.3,0-12.7-1.1-18.6-1.1s-12.9,0.7-19.3,1.1L256,94.8z">
      </path>
      <path class="st2" d="M472.5,106.4c6.1-17.2,12.7-33.7,20.3-50.5c6.8,16.5,12.6,33.3,18.6,50.5L472.5,106.4z M508.5,15
						c-2.7,0.5-5.4,0.9-8.1,1c-2.6-0.2-5.2-0.5-7.7-1c-15.2,40-39.5,98.5-53.4,130.9c-13.6-19.6-32.5-48.3-46.5-68.8
						C404,63.3,438.2,25.6,447.7,16c-4.9,0.5-9.3,1-12.7,1c-4-0.1-8-0.4-11.9-1c-7.4,10.8-35,45.2-54,67.7c0-27.4,0-56.4,1.7-67.7
						c-5.8,0.6-11.6,0.9-17.5,0.8c-5.8,0-11.6-0.4-17.4-1c1.3,18.6,1.7,35,1.7,58.8v28.8c0,23.7,0,40.1-1.7,58.8
						c5.8-0.6,11.6-0.9,17.4-0.9c5.8,0.1,11.6,0.4,17.4,1.1c-1.7-13.4-1.7-36.1-1.7-66.6l0,0c14,22,28.4,44.3,42.4,66.6
						c13.5-1.4,27.2-1.4,40.7,0c4.1-14.7,9.1-29.1,14.9-43.2c7.4,0,14.6,0,22,0c9.3,0,18,0,27.1,0c5.3,14.4,10.2,29.1,14.6,43.5
						c6,0,12.1-1.1,18-1.1c6,0,11.9,0.7,18.6,1.1C551.4,127.7,526.6,63.3,508.5,15">
      </path>
      <path class="st2" d="M603.7,108.2c0,11.4,0,37.2,0,41.4c4.3,0,9.9,0.7,18.6,0.7c31.8,0,51.9-21.7,51.9-65.7
						c0-34.8-19.2-56.4-48.5-56.4c-10.1,0-15.4,0-22,1c0,4.1,0,29.9,0,41.4L603.7,108.2z M572.3,74.7c0-23.8,0-40.1-1.7-58.8
						c5.8,0.6,11.6,0.9,17.4,0.8c9.3,0,19.7-1.1,38.4-1.1c48.3,0,81.6,15.5,81.6,68.9c0,46.5-33.6,77.4-73.4,77.4
						c-21.2,0-35.7-1.1-46.5-1.1c-5.8,0.1-11.6,0.4-17.4,1.1c1.3-18.6,1.7-35,1.7-58.8L572.3,74.7z">
      </path>
      <path class="st2" d="M721.9,74.7c0-23.8,0-40.1-1.7-58.8c5.8,0.6,11.6,0.9,17.4,0.8c5.8-0.1,11.6-0.4,17.4-1.1
						c-1.3,18.6-1.7,35-1.7,58.8v28.8c0,23.7,0,40.1,1.7,58.8c-5.8-0.7-11.6-1.1-17.4-1.1c-5.8,0.1-11.6,0.4-17.4,1.1
						c1.3-18.6,1.7-35,1.7-58.8L721.9,74.7z">
      </path>
      <path class="st2" d="M844.3,106.4c-6.2-17.2-12.1-33.9-18.6-50.5c-7.6,16.7-14.1,33.3-20.3,50.5H844.3z M900.1,162.1
						c-6.8,0-12.7-1.1-18.6-1.1s-12.1,0.7-18,1.1c-4.4-14.4-9.3-29.1-14.6-43.5c-9.3,0-18,0-27.1,0c-7.4,0-14.6,0-22,0
						c-5.6,14.2-10.4,28.7-14.4,43.5c-3.3-0.6-6.6-1-9.9-1.1c-3.6,0.2-7.1,0.5-10.6,1.1c10.6-23.3,42.5-98.8,60.7-147.2
						c2.6,0.5,5.3,0.9,8,1c2.7-0.2,5.4-0.5,8.1-1c18,48.3,42.9,112.8,58.9,147.4">
      </path>
      <polygon class="st2" points="415.9,182.1 0,182.1 0,201 428,201 					">
      </polygon>
      <polygon class="st2" points="459.3,182.1 471.4,201 903.8,201 903.8,182.1 					">
      </polygon>
      <path class="st2" d="M911.1,26.7c2.2,0,3.6-1.1,3.6-2.8l0,0c0-1.8-1.4-2.8-3.6-2.8h-4.6v5.8L911.1,26.7z M903,17.4h8.1
						c2-0.1,4,0.6,5.6,2c1,1,1.6,2.4,1.5,3.8l0,0c0.1,2.6-1.6,5-4.2,5.6l4.9,6.9h-4.2l-4.5-6.3h-3.8v6.3h-3.5L903,17.4z M925.8,26.7
						L925.8,26.7c0.1-8.5-6.7-15.5-15.2-15.6c-0.1,0-0.2,0-0.4,0c-8.6-0.1-15.7,6.9-15.7,15.5c0,0.1,0,0.1,0,0.2l0,0
						c-0.1,8.5,6.7,15.5,15.2,15.6c0.1,0,0.2,0,0.4,0c8.6,0.1,15.7-6.9,15.7-15.5C925.8,26.8,925.8,26.7,925.8,26.7 M892.5,27.5
						L892.5,27.5c0.7-9.7,9.1-17,18.8-16.2c8.7,0.6,15.6,7.6,16.2,16.2l0,0c-0.2,9.7-8.2,17.4-17.9,17.2
						C900.2,44.6,892.6,37,892.5,27.5">
      </path>
     </g>
    </g>
   </g>
  </g>
 </g>
</svg>