<svg width="113" height="94" viewBox="0 0 113 94" fill="none" xmlns="http://www.w3.org/2000/svg">
<g id="Hetero_idX8Uvk5-v_1 2" clip-path="url(#clip0_263_7384)">
<path id="Vector" d="M13.1987 56.4856V48.8973H5.28959V56.4856H0.513916V37.4961H5.28959V44.7823H13.1987V37.4961H17.9744V56.4856H13.1987Z" fill="#FF0000"/>
<path id="Vector_2" d="M20.5061 56.4856V37.4961H35.305V41.4223H25.244V44.9522H33.8327V48.7652H25.244V52.5593H35.305V56.4856H20.5061Z" fill="#FF0000"/>
<path id="Vector_3" d="M43.4026 56.4856V41.479H37.4944V37.4961H54.1054V41.479H48.1783V56.4856H43.4026Z" fill="#FF0000"/>
<path id="Vector_4" d="M56.3303 56.4856V37.4961H70.7895V41.4223H61.0683V44.9522H69.6569V48.7652H61.0683V52.5593H71.1293V56.4856H56.3303Z" fill="#FF0000"/>
<path id="Vector_5" d="M85.081 56.4856L81.5134 51.3324H77.9458V56.4856H73.1702V37.4961H81.4191C83.0802 37.4961 84.5525 37.7792 85.7795 38.3455C87.0253 38.9118 87.988 39.7235 88.6675 40.7617C89.3471 41.7999 89.6868 43.0457 89.6868 44.4614C89.6868 45.8771 89.3471 47.123 88.6486 48.1423C88.0069 49.105 87.1197 49.86 86.006 50.3885L90.2531 56.4856H85.081ZM81.1925 47.425C82.4195 47.425 83.3444 47.1607 83.9674 46.6322C84.5903 46.1036 84.8923 45.4052 84.8923 44.4425C84.8923 43.4799 84.5903 42.7437 83.9862 42.234C83.3633 41.7244 82.4384 41.4601 81.2114 41.4601H77.9647V47.4061H81.1925V47.425Z" fill="#FF0000"/>
<path id="Vector_6" d="M110.81 41.0641C109.961 39.9126 108.904 38.9499 107.601 38.2515C107.299 38.0816 106.96 37.9495 106.639 37.7985C105.997 37.5153 105.336 37.3077 104.638 37.1567C100.391 15.2414 81.1747 -0.652344 58.8441 -0.652344C37.7217 -0.652344 19.1475 13.4859 13.6545 33.8156H18.1471C23.5079 15.921 40.119 3.38716 58.8441 3.38716C78.7774 3.38716 96.2001 17.5821 100.372 37.0623C99.8244 37.1567 99.2958 37.3077 98.7862 37.4776C98.1633 37.6663 97.5592 37.9117 96.9741 38.2326C95.4073 39.0821 94.1426 40.2901 93.2555 41.8002C93.0856 42.1022 92.9346 42.4043 92.7836 42.7063C92.1418 44.0087 91.7831 45.4433 91.7831 46.9723C91.7831 51.748 95.2563 55.7497 99.9188 56.7879C95.0109 75.4754 78.1734 88.4811 58.8441 88.4811C40.8929 88.4811 24.263 77.1176 18.2415 60.1856L18.1848 60.0158L13.6734 59.978L13.7678 60.2989C20.0158 79.647 38.5334 92.6338 58.8441 92.6338C69.4337 92.6338 79.8156 88.9718 88.0645 82.3085C96.0869 75.834 101.787 66.8301 104.185 56.8823C109.111 56.0329 112.849 51.9179 112.849 46.9723C112.849 44.7638 112.094 42.7252 110.81 41.0641ZM102.297 52.5785C99.1448 52.5785 96.5777 50.0114 96.5777 46.859C96.5777 43.7067 99.1448 41.1396 102.297 41.1396C105.449 41.1396 108.017 43.7067 108.017 46.859C108.017 50.0302 105.468 52.5785 102.297 52.5785Z" fill="#FF0000"/>
<path id="Vector_7" d="M58.8448 92.6891C53.8426 92.6891 48.8782 91.8963 44.1025 90.3485C39.4212 88.8384 35.023 86.611 31.0213 83.7607C27.0006 80.8915 23.4897 77.4561 20.5639 73.5487C17.5625 69.5281 15.2785 65.0733 13.7307 60.3165L13.6174 59.9389H13.674L18.2232 59.9767L18.2987 60.1655C24.3013 77.0785 40.8935 88.442 58.8448 88.442C63.6016 88.442 68.264 87.6681 72.7188 86.1202C77.0603 84.6101 81.1187 82.4205 84.7618 79.6079C88.4049 76.7954 91.5572 73.4354 94.1055 69.6036C96.7105 65.6962 98.6547 61.3924 99.8628 56.8244C97.5976 56.3147 95.5401 55.0689 94.0678 53.3134C92.5577 51.5202 91.7271 49.2739 91.7271 46.9899C91.7271 45.4987 92.0669 44.0641 92.7276 42.705C92.8786 42.3652 93.0485 42.0632 93.1995 41.7989C94.0867 40.2888 95.3514 39.0807 96.937 38.2124C97.4844 37.9104 98.0884 37.665 98.7491 37.4574C99.2776 37.2875 99.7873 37.1365 100.297 37.0421C96.1064 17.5808 78.6837 3.46136 58.8259 3.46136C54.239 3.46136 49.6898 4.2164 45.3294 5.68875C41.0823 7.14221 37.0994 9.23747 33.4752 11.9556C29.8698 14.6549 26.7175 17.8828 24.1315 21.5636C21.4699 25.32 19.469 29.4539 18.1477 33.852L18.1288 33.8898H13.5608L13.5797 33.8332C19.0915 13.5035 37.6846 -0.691406 58.8448 -0.691406C81.1565 -0.691406 100.429 15.2023 104.676 37.0987C105.356 37.2497 106.016 37.4574 106.658 37.7405C107.036 37.8915 107.357 38.0426 107.621 38.1936C108.904 38.892 109.999 39.8358 110.849 41.025C112.189 42.7805 112.887 44.838 112.887 46.971C112.887 51.8599 109.244 56.0504 104.204 56.9376C101.807 66.8665 96.0875 75.9082 88.084 82.3639C79.8162 89.0272 69.4343 92.6891 58.8448 92.6891ZM13.7307 60.0333L13.8062 60.2976C15.3352 65.0355 17.638 69.4714 20.6205 73.492C23.5274 77.3994 27.0384 80.8349 31.059 83.6852C35.0608 86.5355 39.4589 88.744 44.1214 90.2541C48.897 91.802 53.8426 92.5759 58.8448 92.5759C69.4155 92.5759 79.7974 88.9139 88.0274 82.2695C96.0309 75.8138 101.75 66.791 104.129 56.8621V56.8244H104.167C109.169 55.9561 112.793 51.8033 112.793 46.9521C112.793 44.8191 112.095 42.7805 110.773 41.0627C109.924 39.8924 108.848 38.9486 107.564 38.2502C107.281 38.0992 106.979 37.967 106.602 37.7972C105.96 37.514 105.28 37.3064 104.601 37.1554H104.563V37.1176C100.335 15.2401 81.0998 -0.63478 58.8259 -0.63478C37.7412 -0.63478 19.1859 13.5035 13.6929 33.7577H18.0911C19.4124 29.3595 21.4322 25.2256 24.0748 21.4692C26.6797 17.7884 29.8132 14.5417 33.4374 11.8424C37.0617 9.12422 41.0445 7.01008 45.3106 5.57549C49.671 4.08427 54.2201 3.32922 58.8259 3.32922C78.7214 3.32922 96.2197 17.5052 100.41 37.0232L100.429 37.061H100.391C99.8817 37.1554 99.3531 37.2875 98.8057 37.4763C98.1639 37.6839 97.5599 37.9293 97.0125 38.2124C95.4457 39.0619 94.1999 40.2511 93.3127 41.7612C93.1617 42.0254 93.0107 42.3274 92.8408 42.6672C92.1802 44.0263 91.8404 45.442 91.8404 46.9144C91.8404 49.1795 92.6521 51.4258 94.1433 53.1813C95.6156 54.9179 97.6731 56.1637 99.9383 56.6734L99.976 56.6922L99.9572 56.73C98.7491 61.3169 96.8048 65.6395 94.181 69.5658C91.6139 73.3977 88.4616 76.7765 84.8184 79.5891C81.1565 82.4016 77.0981 84.6101 72.7377 86.1014C68.264 87.6492 63.5827 88.4231 58.8259 88.4231C40.8369 88.4231 24.207 77.0597 18.1855 60.09L18.1288 59.9578L13.7307 60.0333ZM102.298 52.6339C99.1266 52.6339 96.5406 50.0478 96.5406 46.8766C96.5406 43.7054 99.1266 41.1194 102.298 41.1194C105.469 41.1194 108.055 43.7054 108.055 46.8766C108.055 50.0478 105.488 52.6339 102.298 52.6339ZM102.298 41.1949C99.1644 41.1949 96.6349 43.7432 96.6349 46.8577C96.6349 49.9723 99.1832 52.5206 102.298 52.5206C105.431 52.5206 107.961 49.9723 107.961 46.8577C107.961 43.7432 105.431 41.1949 102.298 41.1949Z" fill="#FF0000"/>
</g>
<defs>
<clipPath id="clip0_263_7384">
<rect width="112.496" height="93.3806" fill="white" transform="translate(0.451416 0.308594)"/>
</clipPath>
</defs>
</svg>
